<?xml version="1.0" encoding="UTF-8"?>
<!DOCTYPE svg PUBLIC "-//W3C//DTD SVG 1.1//EN" "http://www.w3.org/Graphics/SVG/1.1/DTD/svg11.dtd" [
  <!ENTITY fill_color "#FFFFFF">
  <!ENTITY stroke_color "#000000">
]>

<svg xmlns="http://www.w3.org/2000/svg" xmlns:v="https://svgstorm.com"
viewBox = "0 0 512 512"
width="512"
height="512">
<g fill="None" fill-opacity="0.0" stroke="&stroke_color;" stroke-opacity="0.00" stroke-width="0.3"><path d="
M 0.00 512.00 
L 512.00 512.00
L 512.00 0.00
L 0.00 0.00
L 0.00 512.00
M 504.00 256.00 
C 504.00 338.67 504.00 421.33 504.00 504.00
C 421.33 504.00 338.67 504.00 256.00 504.00
C 173.33 504.00 90.67 504.00 8.00 504.00
C 8.00 421.33 8.00 338.67 8.00 256.00
C 8.00 173.33 8.00 90.67 8.00 8.00
C 90.67 8.00 173.33 8.00 256.00 8.00
C 338.67 8.00 421.33 8.00 504.00 8.00
C 504.00 90.67 504.00 173.33 504.00 256.00 Z"/>
</g>
<g fill="None" fill-opacity="0.0" stroke="&fill_color;" stroke-opacity="1.00" stroke-width="0.3"><path d="
M 8.00 256.00 
C 49.33 256.00 90.67 256.00 132.00 256.00
C 132.00 297.33 132.00 338.67 132.00 380.00
C 173.33 380.00 214.67 380.00 256.00 380.00
C 256.00 421.33 256.00 462.67 256.00 504.00
C 338.67 504.00 421.33 504.00 504.00 504.00
C 504.00 421.33 504.00 338.67 504.00 256.00
C 463.00 256.00 422.00 256.00 381.00 256.00
C 381.00 297.33 381.00 338.67 381.00 380.00
C 339.67 380.00 298.33 380.00 257.00 380.00
C 257.22 339.14 256.56 298.07 257.33 257.33 C 297.20 254.23 339.28 256.89 380.00 256.00
C 380.00 214.67 380.00 173.33 380.00 132.00
C 339.00 132.00 298.00 132.00 257.00 132.00
C 257.00 173.33 257.00 214.67 257.00 256.00
C 215.67 256.00 174.33 256.00 133.00 256.00
C 133.00 214.67 133.00 173.33 133.00 132.00
C 174.00 132.00 215.00 132.00 256.00 132.00
C 256.00 90.67 256.00 49.33 256.00 8.00
C 173.33 8.00 90.67 8.00 8.00 8.00
C 8.00 90.67 8.00 173.33 8.00 256.00 Z"/>
</g>
<g fill="None" fill-opacity="0.0" stroke="&stroke_color;" stroke-opacity="1.00" stroke-width="0.3"><path d="
M 504.00 256.00 
C 504.00 173.33 504.00 90.67 504.00 8.00
C 421.33 8.00 338.67 8.00 256.00 8.00
C 256.00 49.33 256.00 90.67 256.00 132.00
C 215.00 132.00 174.00 132.00 133.00 132.00
C 133.00 173.33 133.00 214.67 133.00 256.00
C 174.33 256.00 215.67 256.00 257.00 256.00
C 257.00 214.67 257.00 173.33 257.00 132.00
C 298.00 132.00 339.00 132.00 380.00 132.00
C 380.00 173.33 380.00 214.67 380.00 256.00
C 339.28 256.89 297.20 254.23 257.33 257.33 C 256.56 298.07 257.22 339.14 257.00 380.00
C 298.33 380.00 339.67 380.00 381.00 380.00
C 381.00 338.67 381.00 297.33 381.00 256.00
C 422.00 256.00 463.00 256.00 504.00 256.00 Z"/>
</g>
<g fill="None" fill-opacity="0.0" stroke="&stroke_color;" stroke-opacity="1.00" stroke-width="0.3"><path d="
M 256.00 504.00 
C 256.00 462.67 256.00 421.33 256.00 380.00
C 214.67 380.00 173.33 380.00 132.00 380.00
C 132.00 338.67 132.00 297.33 132.00 256.00
C 90.67 256.00 49.33 256.00 8.00 256.00
C 8.00 338.67 8.00 421.33 8.00 504.00
C 90.67 504.00 173.33 504.00 256.00 504.00 Z"/>
</g>
<g fill="&stroke_color;" fill-opacity="0.00" stroke="None">
<path d="
M 0.00 512.00 
L 512.00 512.00
L 512.00 0.00
L 0.00 0.00
L 0.00 512.00
M 504.00 256.00 
C 504.00 338.67 504.00 421.33 504.00 504.00
C 421.33 504.00 338.67 504.00 256.00 504.00
C 173.33 504.00 90.67 504.00 8.00 504.00
C 8.00 421.33 8.00 338.67 8.00 256.00
C 8.00 173.33 8.00 90.67 8.00 8.00
C 90.67 8.00 173.33 8.00 256.00 8.00
C 338.67 8.00 421.33 8.00 504.00 8.00
C 504.00 90.67 504.00 173.33 504.00 256.00 Z"/>
</g>
<g fill="&fill_color;" fill-opacity="1.00" stroke="None">
<path d="
M 8.00 256.00 
C 49.33 256.00 90.67 256.00 132.00 256.00
C 132.00 297.33 132.00 338.67 132.00 380.00
C 173.33 380.00 214.67 380.00 256.00 380.00
C 256.00 421.33 256.00 462.67 256.00 504.00
C 338.67 504.00 421.33 504.00 504.00 504.00
C 504.00 421.33 504.00 338.67 504.00 256.00
C 463.00 256.00 422.00 256.00 381.00 256.00
C 381.00 297.33 381.00 338.67 381.00 380.00
C 339.67 380.00 298.33 380.00 257.00 380.00
C 257.22 339.14 256.56 298.07 257.33 257.33 C 297.20 254.23 339.28 256.89 380.00 256.00
C 380.00 214.67 380.00 173.33 380.00 132.00
C 339.00 132.00 298.00 132.00 257.00 132.00
C 257.00 173.33 257.00 214.67 257.00 256.00
C 215.67 256.00 174.33 256.00 133.00 256.00
C 133.00 214.67 133.00 173.33 133.00 132.00
C 174.00 132.00 215.00 132.00 256.00 132.00
C 256.00 90.67 256.00 49.33 256.00 8.00
C 173.33 8.00 90.67 8.00 8.00 8.00
C 8.00 90.67 8.00 173.33 8.00 256.00 Z"/>
</g>
<g fill="&stroke_color;" fill-opacity="1.00" stroke="None">
<path d="
M 504.00 256.00 
C 504.00 173.33 504.00 90.67 504.00 8.00
C 421.33 8.00 338.67 8.00 256.00 8.00
C 256.00 49.33 256.00 90.67 256.00 132.00
C 215.00 132.00 174.00 132.00 133.00 132.00
C 133.00 173.33 133.00 214.67 133.00 256.00
C 174.33 256.00 215.67 256.00 257.00 256.00
C 257.00 214.67 257.00 173.33 257.00 132.00
C 298.00 132.00 339.00 132.00 380.00 132.00
C 380.00 173.33 380.00 214.67 380.00 256.00
C 339.28 256.89 297.20 254.23 257.33 257.33 C 256.56 298.07 257.22 339.14 257.00 380.00
C 298.33 380.00 339.67 380.00 381.00 380.00
C 381.00 338.67 381.00 297.33 381.00 256.00
C 422.00 256.00 463.00 256.00 504.00 256.00 Z"/>
</g>
<g fill="&stroke_color;" fill-opacity="1.00" stroke="None">
<path d="
M 256.00 504.00 
C 256.00 462.67 256.00 421.33 256.00 380.00
C 214.67 380.00 173.33 380.00 132.00 380.00
C 132.00 338.67 132.00 297.33 132.00 256.00
C 90.67 256.00 49.33 256.00 8.00 256.00
C 8.00 338.67 8.00 421.33 8.00 504.00
C 90.67 504.00 173.33 504.00 256.00 504.00 Z"/>
</g>
</svg>